[h264 @ 0x558303451a80] Reinit context to 1920x1088, pix_fmt: yuv420p
Input #0, mov,mp4,m4a,3gp,3g2,mj2, from '/var/www/html/project/media/video/original/20251120_Visita_Mannino_GO.mp4':
  Metadata:
    major_brand     : isom
    minor_version   : 512
    compatible_brands: isomiso2avc1mp41
    creation_time   : 2025-11-20T16:52:49.000000Z
    encoder         : Blackmagic Design DaVinci Resolve
  Duration: 00:03:03.93, start: 0.000000, bitrate: 7762 kb/s
    Stream #0:0(und): Video: h264 (Main), 1 reference frame (avc1 / 0x31637661), yuv420p(tv, bt709, progressive, left), 1920x1080 (1920x1088), 7438 kb/s, SAR 1:1 DAR 16:9, 30 fps, 30 tbr, 15360 tbn, 60 tbc (default)
    Metadata:
      creation_time   : 2025-11-20T16:52:49.000000Z
      handler_name    : VideoHandler
      encoder         : H.264
    Stream #0:1(und): Audio: aac (LC) (mp4a / 0x6134706D), 48000 Hz, stereo, fltp, 320 kb/s (default)
    Metadata:
      creation_time   : 2025-11-20T16:52:49.000000Z
      handler_name    : SoundHandler
Input #1, png_pipe, from '/var/www/html/project/static/images/templates/logo.png':
  Duration: N/A, bitrate: N/A
    Stream #1:0: Video: png, 1 reference frame, rgba(pc), 1920x1080 [SAR 2835:2835 DAR 16:9], 25 tbr, 25 tbn, 25 tbc
[h264 @ 0x558303463880] Reinit context to 1280x720, pix_fmt: yuv420p
Input #2, mov,mp4,m4a,3gp,3g2,mj2, from '/var/www/html/project/static/images/templates/Codino.mp4':
  Metadata:
    major_brand     : mp42
    minor_version   : 1
    compatible_brands: isommp41mp42
    creation_time   : 2021-07-11T07:02:58.000000Z
  Duration: 00:00:02.00, start: 0.000000, bitrate: 1007 kb/s
    Stream #2:0(ita): Audio: aac (LC) (mp4a / 0x6134706D), 44100 Hz, stereo, fltp, 102 kb/s (default)
    Metadata:
      creation_time   : 2021-07-11T07:02:58.000000Z
      handler_name    : Core Media Audio
    Stream #2:1(und): Video: h264 (High), 1 reference frame (avc1 / 0x31637661), yuv420p(tv, bt709, progressive, left), 1280x720 [SAR 1:1 DAR 16:9], 813 kb/s, 25 fps, 25 tbr, 25k tbn, 50k tbc (default)
    Metadata:
      creation_time   : 2021-07-11T07:02:58.000000Z
      handler_name    : Core Media Video
[Parsed_scale_0 @ 0x5583035c5b40] w:1920 h:1080 flags:'bilinear' interl:0
[Parsed_scale_2 @ 0x5583035c6540] w:1920 h:1080 flags:'bilinear' interl:0
[Parsed_scale_4 @ 0x5583034c0c40] w:1920 h:1080 flags:'bilinear' interl:0
Stream mapping:
  Stream #0:0 (h264) -> scale
  Stream #0:1 (aac) -> concat:in0:a0
  Stream #1:0 (png) -> scale
  Stream #2:0 (aac) -> concat:in1:a0
  Stream #2:1 (h264) -> scale
  concat:out:v0 -> Stream #0:0 (libx264)
  concat:out:a0 -> Stream #0:1 (aac)
Press [q] to stop, [?] for help
[h264 @ 0x55830364d980] Reinit context to 1920x1088, pix_fmt: yuv420p
[h264 @ 0x55830393e600] Reinit context to 1280x720, pix_fmt: yuv420p
[Parsed_scale_0 @ 0x558304de4cc0] w:1920 h:1080 flags:'bilinear' interl:0
[Parsed_scale_2 @ 0x558304ded280] w:1920 h:1080 flags:'bilinear' interl:0
[Parsed_scale_4 @ 0x558304dee4c0] w:1920 h:1080 flags:'bilinear' interl:0
[graph 0 input from stream 0:0 @ 0x558304df2c00] w:1920 h:1080 pixfmt:yuv420p tb:1/15360 fr:30/1 sar:1/1 sws_param:flags=2
[graph 0 input from stream 1:0 @ 0x558304df3c80] w:1920 h:1080 pixfmt:rgba tb:1/25 fr:25/1 sar:2835/2835 sws_param:flags=2
[graph 0 input from stream 2:1 @ 0x558304df4d00] w:1280 h:720 pixfmt:yuv420p tb:1/25000 fr:25/1 sar:1/1 sws_param:flags=2
[graph_0_in_0_1 @ 0x558304df5cc0] tb:1/48000 samplefmt:fltp samplerate:48000 chlayout:0x3
[graph_0_in_2_0 @ 0x558304df6e00] tb:1/44100 samplefmt:fltp samplerate:44100 chlayout:0x3
[Parsed_concat_7 @ 0x558304df0c80] auto-inserting filter 'auto_resampler_0' between the filter 'graph_0_in_2_0' and the filter 'Parsed_concat_7'
[Parsed_scale_0 @ 0x558304de4cc0] w:1920 h:1080 fmt:yuv420p sar:1/1 -> w:1920 h:1080 fmt:yuv420p sar:1/1 flags:0x2
[Parsed_setsar_1 @ 0x5583036028c0] w:1920 h:1080 sar:1/1 dar:16/9 -> sar:1/1 dar:16/9
[Parsed_scale_2 @ 0x558304ded280] w:1920 h:1080 fmt:rgba sar:2835/2835 -> w:1920 h:1080 fmt:yuva420p sar:1/1 flags:0x2
[Parsed_setsar_3 @ 0x558304ded780] w:1920 h:1080 sar:1/1 dar:16/9 -> sar:1/1 dar:16/9
[Parsed_overlay_6 @ 0x558304defb40] main w:1920 h:1080 fmt:yuv420p overlay w:1920 h:1080 fmt:yuva420p
[Parsed_overlay_6 @ 0x558304defb40] [framesync @ 0x558304defc68] Selected 1/76800 time base
[Parsed_overlay_6 @ 0x558304defb40] [framesync @ 0x558304defc68] Sync level 2
[Parsed_scale_4 @ 0x558304dee4c0] w:1280 h:720 fmt:yuv420p sar:1/1 -> w:1920 h:1080 fmt:yuv420p sar:1/1 flags:0x2
[Parsed_setsar_5 @ 0x558304deef80] w:1920 h:1080 sar:1/1 dar:16/9 -> sar:1/1 dar:16/9
[auto_resampler_0 @ 0x558304dfefc0] ch:2 chl:stereo fmt:fltp r:44100Hz -> ch:2 chl:stereo fmt:fltp r:48000Hz
[libx264 @ 0x558303483bc0] using SAR=1/1
[libx264 @ 0x558303483bc0] using cpu capabilities: MMX2 SSE2Fast SSSE3 SSE4.2 AVX FMA3 BMI2 AVX2
[libx264 @ 0x558303483bc0] profile High, level 4.0
[libx264 @ 0x558303483bc0] 264 - core 155 r2917 0a84d98 - H.264/MPEG-4 AVC codec - Copyleft 2003-2018 - http://www.videolan.org/x264.html - options: cabac=1 ref=1 deblock=1:0:0 analyse=0x3:0x113 me=hex subme=2 psy=1 psy_rd=1.00:0.00 mixed_ref=0 me_range=16 chroma_me=1 trellis=0 8x8dct=1 cqm=0 deadzone=21,11 fast_pskip=1 chroma_qp_offset=0 threads=24 lookahead_threads=8 sliced_threads=0 nr=0 decimate=1 interlaced=0 bluray_compat=0 constrained_intra=0 bframes=3 b_pyramid=2 b_adapt=1 b_bias=0 direct=1 weightb=1 open_gop=0 weightp=1 keyint=250 keyint_min=25 scenecut=40 intra_refresh=0 rc_lookahead=10 rc=crf mbtree=1 crf=18.0 qcomp=0.60 qpmin=0 qpmax=69 qpstep=4 ip_ratio=1.40 aq=1:1.00
Output #0, mp4, to '/var/www/html/project/media/video/watermarks/20251120_Visita_Mannino_GO.mp4':
  Metadata:
    major_brand     : isom
    minor_version   : 512
    compatible_brands: isomiso2avc1mp41
    encoder         : Lavf58.29.100
    Stream #0:0: Video: h264 (libx264), 1 reference frame (avc1 / 0x31637661), yuv420p(progressive), 1920x1080 [SAR 1:1 DAR 16:9], q=-1--1, 30 fps, 15360 tbn, 30 tbc (default)
    Metadata:
      encoder         : Lavc58.54.100 libx264
    Side data:
      cpb: bitrate max/min/avg: 0/0/0 buffer size: 0 vbv_delay: -1
    Stream #0:1: Audio: aac (LC) (mp4a / 0x6134706D), 48000 Hz, stereo, fltp, delay 1024, 128 kb/s (default)
    Metadata:
      encoder         : Lavc58.54.100 aac
[Parsed_overlay_6 @ 0x558304defb40] [framesync @ 0x558304defc68] Sync level 0
[Parsed_concat_7 @ 0x558304df0c80] EOF on in0:v0, 1 streams left in segment.
[Parsed_concat_7 @ 0x558304df0c80] EOF on in0:a0, 0 streams left in segment.
[Parsed_concat_7 @ 0x558304df0c80] Segment finished at pts=183936000
[Parsed_concat_7 @ 0x558304df0c80] EOF on in1:v0, 1 streams left in segment.
[Parsed_concat_7 @ 0x558304df0c80] EOF on in1:a0, 0 streams left in segment.
[Parsed_concat_7 @ 0x558304df0c80] Segment finished at pts=185954687
No more output streams to write to, finishing.
frame= 5568 fps=108 q=-1.0 Lsize=  178967kB time=00:03:05.96 bitrate=7883.8kbits/s speed=3.59x    
[AVIOContext @ 0x55830344fec0] Statistics: 0 seeks, 103 writeouts
video:175852kB audio:2915kB subtitle:0kB other streams:0kB global headers:0kB muxing overhead: 0.111826%
Input file #0 (/var/www/html/project/media/video/original/20251120_Visita_Mannino_GO.mp4):
  Input stream #0:0 (video): 5518 packets read (171028815 bytes); 5518 frames decoded; 
  Input stream #0:1 (audio): 8622 packets read (7357559 bytes); 8622 frames decoded (8828928 samples); 
  Total: 14140 packets (178386374 bytes) demuxed
Input file #1 (/var/www/html/project/static/images/templates/logo.png):
  Input stream #1:0 (video): 1 packets read (111578 bytes); 1 frames decoded; 
  Total: 1 packets (111578 bytes) demuxed
Input file #2 (/var/www/html/project/static/images/templates/Codino.mp4):
  Input stream #2:0 (audio): 89 packets read (26579 bytes); 87 frames decoded (89024 samples); 
  Input stream #2:1 (video): 50 packets read (203365 bytes); 50 frames decoded; 
  Total: 139 packets (229944 bytes) demuxed
Output file #0 (/var/www/html/project/media/video/watermarks/20251120_Visita_Mannino_GO.mp4):
  Output stream #0:0 (video): 5568 frames encoded; 5568 packets muxed (180072855 bytes); 
  Output stream #0:1 (audio): 8717 frames encoded (8925825 samples); 8718 packets muxed (2984873 bytes); 
  Total: 14286 packets (183057728 bytes) muxed
[AVIOContext @ 0x5583034c4080] Statistics: 2 seeks, 702 writeouts
[libx264 @ 0x558303483bc0] frame I:28    Avg QP:14.27  size:259508
[libx264 @ 0x558303483bc0] frame P:1596  Avg QP:18.33  size: 73303
[libx264 @ 0x558303483bc0] frame B:3944  Avg QP:22.63  size: 14152
[libx264 @ 0x558303483bc0] consecutive B-frames:  3.0%  5.2%  7.8% 84.1%
[libx264 @ 0x558303483bc0] mb I  I16..4: 15.3% 17.5% 67.2%
[libx264 @ 0x558303483bc0] mb P  I16..4:  4.6%  5.7%  3.0%  P16..4: 38.6% 15.7% 12.1%  0.0%  0.0%    skip:20.4%
[libx264 @ 0x558303483bc0] mb B  I16..4:  0.6%  0.5%  0.1%  B16..8: 19.5%  6.3%  1.1%  direct: 9.0%  skip:62.9%  L0:34.2% L1:43.3% BI:22.5%
[libx264 @ 0x558303483bc0] 8x8 transform intra:40.2% inter:19.5%
[libx264 @ 0x558303483bc0] coded y,uvDC,uvAC intra: 53.9% 40.5% 11.7% inter: 15.1% 9.0% 0.3%
[libx264 @ 0x558303483bc0] i16 v,h,dc,p: 42% 30% 15% 13%
[libx264 @ 0x558303483bc0] i8 v,h,dc,ddl,ddr,vr,hd,vl,hu: 31% 34% 18%  2%  2%  2%  4%  2%  3%
[libx264 @ 0x558303483bc0] i4 v,h,dc,ddl,ddr,vr,hd,vl,hu: 27% 25% 14%  5%  6%  5%  7%  5%  6%
[libx264 @ 0x558303483bc0] i8c dc,h,v,p: 49% 25% 20%  6%
[libx264 @ 0x558303483bc0] Weighted P-Frames: Y:4.3% UV:0.4%
[libx264 @ 0x558303483bc0] kb/s:7747.82
[aac @ 0x558303468380] Qavg: 412.800
[AVIOContext @ 0x558303458e40] Statistics: 178482042 bytes read, 0 seeks
[AVIOContext @ 0x558303454940] Statistics: 111578 bytes read, 0 seeks
[AVIOContext @ 0x5583034628c0] Statistics: 1530915 bytes read, 42 seeks
